<svg xmlns="http://www.w3.org/2000/svg" xmlns:xlink="http://www.w3.org/1999/xlink" width="142" height="140" viewBox="0 0 142 140"><defs><style>.a{fill:url(#a);}.b{fill:#fff;}</style><linearGradient id="a" x1="0.5" x2="0.5" y2="1" gradientUnits="objectBoundingBox"><stop offset="0" stop-color="#f66e1f"/><stop offset="1" stop-color="#ec3636"/></linearGradient></defs><g transform="translate(-974 -259)"><path class="a" d="M79.014,2.45a6,6,0,0,1,7.531,1.328l3.77,4.428a6,6,0,0,0,5.566,2.027l5.728-.966a6,6,0,0,1,6.62,3.823l2.032,5.459a6,6,0,0,0,4.534,3.807l5.719,1.055a6,6,0,0,1,4.911,5.854l.045,5.833a6,6,0,0,0,2.957,5.125l5.02,2.954a6,6,0,0,1,2.612,7.178l-1.952,5.5a6,6,0,0,0,1.027,5.825l3.713,4.5a6,6,0,0,1,0,7.637l-3.713,4.5a6,6,0,0,0-1.027,5.825l1.952,5.5a6,6,0,0,1-2.612,7.178l-5.02,2.954a6,6,0,0,0-2.957,5.125l-.045,5.833a6,6,0,0,1-4.911,5.854l-5.719,1.055a6,6,0,0,0-4.534,3.807l-2.032,5.459a6,6,0,0,1-6.62,3.823l-5.728-.966a6,6,0,0,0-5.566,2.027l-3.77,4.428a6,6,0,0,1-7.531,1.328l-5.052-2.868a6,6,0,0,0-5.925,0l-5.052,2.868a6,6,0,0,1-7.531-1.328l-3.77-4.428a6,6,0,0,0-5.566-2.027l-5.728.966a6,6,0,0,1-6.62-3.823l-2.032-5.459a6,6,0,0,0-4.534-3.807l-5.719-1.055a6,6,0,0,1-4.911-5.854l-.045-5.833a6,6,0,0,0-2.957-5.125L8.55,96.822a6,6,0,0,1-2.612-7.178l1.952-5.5a6,6,0,0,0-1.027-5.825l-3.713-4.5a6,6,0,0,1,0-7.637l3.713-4.5A6,6,0,0,0,7.89,55.857l-1.952-5.5A6,6,0,0,1,8.55,43.178l5.02-2.954A6,6,0,0,0,16.528,35.1l.045-5.833a6,6,0,0,1,4.911-5.854L27.2,22.357a6,6,0,0,0,4.534-3.807l2.032-5.459a6,6,0,0,1,6.62-3.823l5.728.966a6,6,0,0,0,5.566-2.027l3.77-4.428A6,6,0,0,1,62.986,2.45l5.052,2.868a6,6,0,0,0,5.925,0Z" transform="translate(974 259)"/><path class="b" d="M49.869,34.272a1.954,1.954,0,0,1-2.176-2.244V12a2.177,2.177,0,1,1,4.352,0v8.024H64.387V12a2.177,2.177,0,1,1,4.352,0V32.028a2.177,2.177,0,1,1-4.352,0V23.664H52.045v8.364A1.954,1.954,0,0,1,49.869,34.272Zm28.05.068a7.16,7.16,0,0,1-3.213-.7,5.56,5.56,0,0,1-2.21-1.887,4.709,4.709,0,0,1-.8-2.686,4.218,4.218,0,0,1,.952-2.907,5.683,5.683,0,0,1,3.094-1.547,27.586,27.586,0,0,1,5.746-.476h1.19v-.714a3.366,3.366,0,0,0-.748-2.448,3.477,3.477,0,0,0-2.516-.748,10.425,10.425,0,0,0-2.125.238,11.321,11.321,0,0,0-2.4.816,1.5,1.5,0,0,1-1.36.085,1.463,1.463,0,0,1-.731-.918,1.905,1.905,0,0,1,.068-1.275,1.7,1.7,0,0,1,1.037-.952,15.341,15.341,0,0,1,3.009-.918,14.347,14.347,0,0,1,2.635-.272q3.638,0,5.406,1.683t1.768,5.219V32.1q0,2.176-1.972,2.176-2.006,0-2.006-2.176v-.748a4.641,4.641,0,0,1-1.836,2.193A5.463,5.463,0,0,1,77.919,34.34Zm.884-2.924a3.673,3.673,0,0,0,2.771-1.156,4.062,4.062,0,0,0,1.1-2.924v-.748H81.523a13.582,13.582,0,0,0-4.437.493,1.786,1.786,0,0,0-1.241,1.785,2.374,2.374,0,0,0,.782,1.836A3.108,3.108,0,0,0,78.8,31.416ZM36.031,58.34a17.3,17.3,0,0,1-3.366-.323,12.468,12.468,0,0,1-2.924-.935,1.962,1.962,0,0,1-1-1,1.612,1.612,0,0,1-.051-1.19,1.329,1.329,0,0,1,.782-.8,1.751,1.751,0,0,1,1.428.17,10.184,10.184,0,0,0,2.431.765,13.936,13.936,0,0,0,2.6.255,6.611,6.611,0,0,0,3.094-.527,1.739,1.739,0,0,0,.918-1.615q0-2.006-2.754-2.006H34.161a1.693,1.693,0,0,1-1.224-.425,1.507,1.507,0,0,1-.442-1.139q0-1.5,1.666-1.5h2.618a3.131,3.131,0,0,0,1.87-.493,1.638,1.638,0,0,0,.68-1.411,1.746,1.746,0,0,0-.8-1.53,5.429,5.429,0,0,0-2.873-.544,11.937,11.937,0,0,0-2.312.221,10.626,10.626,0,0,0-2.21.7,1.826,1.826,0,0,1-1.377.119,1.4,1.4,0,0,1-.8-.765,1.478,1.478,0,0,1-.034-1.122,1.651,1.651,0,0,1,.918-.918,13.617,13.617,0,0,1,3.111-.986,18.337,18.337,0,0,1,3.417-.306,8.742,8.742,0,0,1,5.083,1.241,3.994,3.994,0,0,1,1.751,3.451,3.656,3.656,0,0,1-.714,2.227,4.046,4.046,0,0,1-1.938,1.411,4.343,4.343,0,0,1,2.414,1.394,3.9,3.9,0,0,1,.85,2.584,4.2,4.2,0,0,1-2.006,3.638A10.276,10.276,0,0,1,36.031,58.34Zm15.674,0a7.16,7.16,0,0,1-3.213-.7,5.56,5.56,0,0,1-2.21-1.887,4.709,4.709,0,0,1-.8-2.686,4.218,4.218,0,0,1,.952-2.907,5.683,5.683,0,0,1,3.094-1.547,27.586,27.586,0,0,1,5.746-.476h1.19v-.714a3.366,3.366,0,0,0-.748-2.448A3.477,3.477,0,0,0,53.2,44.23a10.425,10.425,0,0,0-2.125.238,11.321,11.321,0,0,0-2.4.816,1.5,1.5,0,0,1-1.36.085,1.463,1.463,0,0,1-.731-.918,1.905,1.905,0,0,1,.068-1.275,1.7,1.7,0,0,1,1.037-.952,15.341,15.341,0,0,1,3.009-.918,14.348,14.348,0,0,1,2.635-.272q3.638,0,5.406,1.683t1.768,5.219V56.1q0,2.176-1.972,2.176-2.006,0-2.006-2.176v-.748A4.641,4.641,0,0,1,54.7,57.541,5.462,5.462,0,0,1,51.705,58.34Zm.884-2.924A3.673,3.673,0,0,0,55.36,54.26a4.062,4.062,0,0,0,1.105-2.924v-.748H55.309a13.582,13.582,0,0,0-4.437.493,1.786,1.786,0,0,0-1.241,1.785,2.374,2.374,0,0,0,.782,1.836A3.108,3.108,0,0,0,52.589,55.416Zm13.464,2.856A1.908,1.908,0,0,1,63.911,56.1V43.312a2.126,2.126,0,1,1,4.25,0v4.522h2.414l4.25-5.712A2.09,2.09,0,0,1,76.2,41.2a1.94,1.94,0,0,1,1.377.306,1.807,1.807,0,0,1,.782,1.122,1.829,1.829,0,0,1-.442,1.53l-3.4,4.658a4.773,4.773,0,0,1,1.411,1.139,12.143,12.143,0,0,1,1.275,1.853l2.006,3.57a1.779,1.779,0,0,1,.221,1.6,1.875,1.875,0,0,1-1,1.037,2.259,2.259,0,0,1-1.5.136,2.063,2.063,0,0,1-1.292-1.071L73.363,53.1a4.2,4.2,0,0,0-1.309-1.564,3.384,3.384,0,0,0-1.785-.408H68.161V56.1A1.894,1.894,0,0,1,66.053,58.272Zm21.012.068a7.16,7.16,0,0,1-3.213-.7,5.56,5.56,0,0,1-2.21-1.887,4.709,4.709,0,0,1-.8-2.686,4.218,4.218,0,0,1,.952-2.907,5.683,5.683,0,0,1,3.094-1.547,27.586,27.586,0,0,1,5.746-.476h1.19v-.714a3.366,3.366,0,0,0-.748-2.448,3.477,3.477,0,0,0-2.516-.748,10.425,10.425,0,0,0-2.125.238,11.321,11.321,0,0,0-2.4.816,1.5,1.5,0,0,1-1.36.085,1.463,1.463,0,0,1-.731-.918,1.905,1.905,0,0,1,.068-1.275,1.7,1.7,0,0,1,1.037-.952,15.341,15.341,0,0,1,3.009-.918,14.348,14.348,0,0,1,2.635-.272q3.638,0,5.406,1.683t1.768,5.219V56.1q0,2.176-1.972,2.176-2.006,0-2.006-2.176v-.748a4.641,4.641,0,0,1-1.836,2.193A5.463,5.463,0,0,1,87.065,58.34Zm.884-2.924A3.673,3.673,0,0,0,90.72,54.26a4.062,4.062,0,0,0,1.1-2.924v-.748H90.669a13.582,13.582,0,0,0-4.437.493,1.786,1.786,0,0,0-1.241,1.785,2.374,2.374,0,0,0,.782,1.836A3.108,3.108,0,0,0,87.949,55.416Zm17.476,2.924a17.3,17.3,0,0,1-3.366-.323,12.468,12.468,0,0,1-2.924-.935,1.962,1.962,0,0,1-1-1,1.612,1.612,0,0,1-.051-1.19,1.329,1.329,0,0,1,.782-.8,1.751,1.751,0,0,1,1.428.17,10.185,10.185,0,0,0,2.431.765,13.936,13.936,0,0,0,2.6.255,6.611,6.611,0,0,0,3.094-.527,1.739,1.739,0,0,0,.918-1.615q0-2.006-2.754-2.006h-3.026a1.693,1.693,0,0,1-1.224-.425,1.507,1.507,0,0,1-.442-1.139q0-1.5,1.666-1.5h2.618a3.131,3.131,0,0,0,1.87-.493,1.638,1.638,0,0,0,.68-1.411,1.746,1.746,0,0,0-.8-1.53,5.429,5.429,0,0,0-2.873-.544,11.937,11.937,0,0,0-2.312.221,10.626,10.626,0,0,0-2.21.7,1.826,1.826,0,0,1-1.377.119,1.4,1.4,0,0,1-.8-.765,1.478,1.478,0,0,1-.034-1.122,1.651,1.651,0,0,1,.918-.918,13.617,13.617,0,0,1,3.111-.986,18.337,18.337,0,0,1,3.417-.306,8.742,8.742,0,0,1,5.083,1.241,3.994,3.994,0,0,1,1.751,3.451,3.656,3.656,0,0,1-.714,2.227,4.046,4.046,0,0,1-1.938,1.411,4.343,4.343,0,0,1,2.414,1.394,3.9,3.9,0,0,1,.85,2.584A4.2,4.2,0,0,1,111.2,56.98,10.276,10.276,0,0,1,105.425,58.34Z" transform="translate(974 293)"/></g></svg>