<svg xmlns="http://www.w3.org/2000/svg" width="30.531" height="31.713" viewBox="0 0 30.531 31.713"><defs><style>.a{fill:none;}.b{fill:#0070d1;}</style></defs><g transform="translate(9.531 6.276)"><rect class="a" width="30" height="30" transform="translate(-9 -5)"/><path class="b" d="M39.6,24.873a9.937,9.937,0,1,1,9.937-9.937A9.949,9.949,0,0,1,39.6,24.873Zm0-17.936a8,8,0,1,0,8,8A8.007,8.007,0,0,0,39.6,6.937ZM43.579,15.9H40.633a2,2,0,0,1-2-2V10.958a2,2,0,0,1,2.485-1.941,6.1,6.1,0,0,1,4.4,4.4A2,2,0,0,1,43.579,15.9Zm-2.953-5.01a.046.046,0,0,0-.029.012.063.063,0,0,0-.026.053V13.9a.062.062,0,0,0,.062.062h2.946a.063.063,0,0,0,.052-.026.041.041,0,0,0,.01-.04,4.162,4.162,0,0,0-3-3l-.011,0ZM38.554,2.909A.97.97,0,0,1,40.493,2.9a.969.969,0,0,0,1.939,0,2.908,2.908,0,0,0-5.817.006.969.969,0,0,0,1.939,0ZM50.372,7.77a.969.969,0,0,0,0-1.371L47.949,3.975a.969.969,0,0,0-1.371,1.371L49,7.77a.969.969,0,0,0,1.371,0Zm-20.165.048,2.424-2.424a.969.969,0,1,0-1.371-1.371L28.836,6.447a.969.969,0,1,0,1.371,1.371Z" transform="matrix(0.914, 0.407, -0.407, 0.914, -25.498, -17.889)"/></g></svg>