<svg xmlns="http://www.w3.org/2000/svg" width="30" height="33.757" viewBox="0 0 30 33.757"><defs><style>.a{fill:none;}.b{fill:#0070d1;}</style></defs><g transform="translate(9 5)"><rect class="a" width="30" height="30" transform="translate(-9 -5)"/><g transform="translate(6.311 -1.431) rotate(45)"><path class="b" d="M6.151,8.8V15.75A4.426,4.426,0,0,1,5.4,18.213l-.006.009-.942,1.372a.779.779,0,0,1-1.284,0l-.942-1.372-.006-.009a4.426,4.426,0,0,1-.746-2.464V8.915a.779.779,0,0,1,1.557,0V15.75a2.874,2.874,0,0,0,.482,1.6l.3.432.3-.432a2.874,2.874,0,0,0,.482-1.6V8.8a.779.779,0,1,1,1.557,0ZM19.593,3.174l-1.372-.942-.009-.006a4.426,4.426,0,0,0-2.464-.746H8.915a.779.779,0,0,0,0,1.557h6.834a2.874,2.874,0,0,1,1.6.482l.432.3-.432.3a2.874,2.874,0,0,1-1.6.482H8.759a.779.779,0,0,0,0,1.557h6.99a4.426,4.426,0,0,0,2.464-.746l.009-.006,1.372-.942a.779.779,0,0,0,0-1.284ZM6.852,3.68a3.173,3.173,0,1,1-5.9-1.623L.228,1.33a.779.779,0,0,1,1.1-1.1l.726.726a3.171,3.171,0,0,1,4.8,2.724Zm-1.557,0A1.616,1.616,0,1,0,3.679,5.3,1.617,1.617,0,0,0,5.294,3.68ZM17.058,17.059a12.143,12.143,0,0,0,3.58-8.643.779.779,0,1,0-1.557,0A10.678,10.678,0,0,1,8.415,19.082a.779.779,0,1,0,0,1.557A12.143,12.143,0,0,0,17.058,17.059Z" transform="translate(0.707 0.707)"/></g></g></svg>