<svg xmlns="http://www.w3.org/2000/svg" width="30" height="30" viewBox="0 0 30 30"><defs><style>.a{fill:none;}.b{fill:#0070d1;}</style></defs><g transform="translate(9 5)"><rect class="a" width="30" height="30" transform="translate(-9 -5)"/><g transform="translate(-6.334 -9.736)"><path class="b" d="M12.024,22.635a6.71,6.71,0,0,1-3.175-.8L1.681,17.99A3.181,3.181,0,0,1,1.7,12.372l7.187-3.8a6.712,6.712,0,0,1,6.281,0l7.187,3.8a3.181,3.181,0,0,1,.016,5.618L15.2,21.835a6.711,6.711,0,0,1-3.175.8Zm0-12.965a4.835,4.835,0,0,0-2.262.562l-7.187,3.8a1.3,1.3,0,0,0-.007,2.3l7.169,3.845a4.827,4.827,0,0,0,4.574,0l7.169-3.845a1.3,1.3,0,0,0-.007-2.3l-7.187-3.8a4.836,4.836,0,0,0-2.262-.562ZM9.323,9.4h0ZM15.2,30.336l8.353-4.48a.939.939,0,1,0-.888-1.656l-8.353,4.48a4.829,4.829,0,0,1-4.577,0L1.381,24.245A.939.939,0,1,0,.5,25.9l8.349,4.431a6.7,6.7,0,0,0,6.35,0Zm0-4.227,8.353-4.48a.939.939,0,1,0-.888-1.656l-8.353,4.48a4.829,4.829,0,0,1-4.577,0L1.381,20.018A.939.939,0,1,0,.5,21.677l8.349,4.431a6.7,6.7,0,0,0,6.35,0Z" transform="translate(0)"/></g></g></svg>