<svg xmlns="http://www.w3.org/2000/svg" width="30" height="30" viewBox="0 0 30 30"><defs><style>.a{fill:none;}.b{fill:#0070d1;}</style></defs><g transform="translate(9 5)"><rect class="a" width="30" height="30" transform="translate(-9 -5)"/><g transform="translate(-4.569 -0.366)"><g transform="translate(0.069 0)"><path class="b" d="M36.965,5.084a5.01,5.01,0,0,0-1.679-3.8A4.947,4.947,0,0,0,32.12,0a.85.85,0,1,0,0,1.7,3.356,3.356,0,0,1,3.145,3.384c0,1.116-.928,2.2-2.759,3.218a26.027,26.027,0,0,1-4.77,1.9c-.26.082-.484.152-.653.21a17.606,17.606,0,0,0-4.138,1.941,7.955,7.955,0,0,0-2.112,2.023,5.212,5.212,0,0,0-.954,3,3.675,3.675,0,0,0,1.157,2.771c1.553,1.476,4.243,1.612,5.184,1.612.189,0,.308-.006.332-.007a.85.85,0,0,0-.086-1.7c-.81.04-3.156-.089-4.262-1.142a2.011,2.011,0,0,1-.626-1.536c0-3.273,4.568-4.846,6.057-5.359.147-.051.361-.118.609-.2,2.609-.821,8.719-2.742,8.719-6.744Z" transform="translate(-19.073 0)"/><path class="b" d="M4.787,5.313a6.965,6.965,0,0,0,4.52-1.937c.326-.257.634-.5.959-.723a.85.85,0,1,0-.964-1.4c-.369.254-.713.525-1.046.786A5.364,5.364,0,0,1,4.787,3.613,2.8,2.8,0,0,1,1.769.85a.85.85,0,1,0-1.7,0A4.493,4.493,0,0,0,4.787,5.313Z" transform="translate(-0.069 0)"/><path class="b" d="M255.973,245.949h0a3.1,3.1,0,0,0-4.388,0l-4.3,4.3a6.128,6.128,0,0,0-1.681,3.142l-.481,2.408a.85.85,0,0,0,1,1l2.408-.481a6.128,6.128,0,0,0,3.142-1.681l4.3-4.3a3.1,3.1,0,0,0,0-4.388Zm-1.2,3.186-4.3,4.3a4.432,4.432,0,0,1-2.273,1.216l-1.158.232.232-1.158a4.432,4.432,0,0,1,1.216-2.273l4.3-4.3a1.4,1.4,0,1,1,1.983,1.983Z" transform="translate(-235.121 -235.052)"/></g></g></g></svg>