<svg xmlns="http://www.w3.org/2000/svg" width="30" height="30" viewBox="0 0 30 30"><defs><style>.a{fill:none;}.b{fill:#0070d1;}</style></defs><g transform="translate(9 5)"><rect class="a" width="30" height="30" transform="translate(-9 -5)"/><g transform="translate(-6.286 -2.285)"><path class="b" d="M18.441,24.086H12.607a5.651,5.651,0,0,1-5.645-5.645V17.123H5.645A5.652,5.652,0,0,1,0,11.478V5.645A5.651,5.651,0,0,1,5.645,0h5.833a5.651,5.651,0,0,1,5.645,5.645V6.962h1.317a5.651,5.651,0,0,1,5.645,5.645v5.833A5.651,5.651,0,0,1,18.441,24.086Zm-12.8-22.2A3.768,3.768,0,0,0,1.882,5.645v5.833a3.768,3.768,0,0,0,3.763,3.763H7.9a.941.941,0,0,1,.941.941v2.258A3.768,3.768,0,0,0,12.607,22.2h5.833A3.768,3.768,0,0,0,22.2,18.441V12.607a3.768,3.768,0,0,0-3.763-3.763H16.183a.941.941,0,0,1-.941-.941V5.645a3.768,3.768,0,0,0-3.763-3.763Zm3.2,10.726a3.768,3.768,0,0,1,3.763-3.763.941.941,0,1,0,0-1.882,5.651,5.651,0,0,0-5.645,5.645.941.941,0,1,0,1.882,0Zm8.279-1.129a.941.941,0,1,0-1.882,0,3.768,3.768,0,0,1-3.763,3.763.941.941,0,0,0,0,1.882,5.652,5.652,0,0,0,5.645-5.645Z"/></g></g></svg>