<svg xmlns="http://www.w3.org/2000/svg" width="30" height="30" viewBox="0 0 30 30"><defs><style>.a{fill:none;}.b{fill:#0070d1;}</style></defs><g transform="translate(9 5)"><rect class="a" width="30" height="30" transform="translate(-9 -5)"/><g transform="translate(-5.75 -1.35)"><path class="b" d="M15.685,20.128H7.954A5.338,5.338,0,0,1,2.622,14.8V7.065a.889.889,0,0,1,1.777,0V14.8a3.559,3.559,0,0,0,3.555,3.555h7.731a.889.889,0,1,1,0,1.777Zm4.443,1.733V20.128h1.733a.889.889,0,0,0,0-1.777H19.24a.889.889,0,0,0-.889.889v2.622a.889.889,0,0,0,1.777,0Zm0-6.176V7.954A5.338,5.338,0,0,0,14.8,2.622H7.109a.889.889,0,0,0,0,1.777H14.8a3.559,3.559,0,0,1,3.555,3.555v7.731a.889.889,0,1,0,1.777,0ZM4.4,3.51V.889a.889.889,0,1,0-1.777,0V2.622H.889a.889.889,0,1,0,0,1.777H3.51A.889.889,0,0,0,4.4,3.51Zm16.959-.547a1.111,1.111,0,1,1,0-1.571A1.111,1.111,0,0,1,21.358,2.963Zm-6.3,3.569a1.111,1.111,0,1,0,1.111,1.111A1.111,1.111,0,0,0,15.063,6.532Zm-3.555,3.555a1.111,1.111,0,1,0,1.111-1.111A1.111,1.111,0,0,0,11.508,10.086Zm-1.422,1.466A1.111,1.111,0,1,0,11.2,12.664,1.111,1.111,0,0,0,10.086,11.553Zm-3.6,3.6A1.111,1.111,0,1,0,7.6,14.041,1.111,1.111,0,0,0,6.487,15.152ZM2.963,19.787a1.111,1.111,0,1,0,0,1.571A1.111,1.111,0,0,0,2.963,19.787Z"/></g></g></svg>