<svg xmlns="http://www.w3.org/2000/svg" width="140" height="140" viewBox="0 0 140 140"><defs><style>.a{fill:#646464;}.b{fill:none;}.c,.d{stroke:none;}.d{fill:#fff;}</style></defs><g transform="translate(-1368 -838)"><rect class="a" width="140" height="140" rx="10" transform="translate(1368 838)"/><g class="b" transform="translate(1431.126 877.367) rotate(45)"><path class="c" d="M0,0,37.664,5.657l5.657,37.664L5.657,37.664Z"/><path class="d" d="M 2.379920959472656 2.379920959472656 L 7.415752410888672 35.90541076660156 L 40.94124221801758 40.94124221801758 L 35.90541076660156 7.415752410888672 L 2.379920959472656 2.379920959472656 M 0 0 L 37.66373062133789 5.657432556152344 L 43.32116317749023 43.32116317749023 L 5.657432556152344 37.66373062133789 L 0 0 Z"/></g><g class="b" transform="translate(1444.874 877.367) rotate(45)"><path class="c" d="M0,0,37.664,5.657l5.657,37.664L5.657,37.664Z"/><path class="d" d="M 2.379920959472656 2.379920959472656 L 7.415752410888672 35.90541076660156 L 40.94124221801758 40.94124221801758 L 35.90541076660156 7.415752410888672 L 2.379920959472656 2.379920959472656 M 0 0 L 37.66373062133789 5.657432556152344 L 43.32116317749023 43.32116317749023 L 5.657432556152344 37.66373062133789 L 0 0 Z"/></g></g></svg>