<svg xmlns="http://www.w3.org/2000/svg" xmlns:xlink="http://www.w3.org/1999/xlink" width="140" height="140" viewBox="0 0 140 140"><defs><style>.a,.f{fill:#959595;}.a{stroke:#707070;}.b{fill:none;}.c{fill:#646464;}.d{clip-path:url(#a);}.e{clip-path:url(#b);}</style><clipPath id="a"><rect class="a" width="50" height="50" transform="translate(1228 2184)"/></clipPath><clipPath id="b"><rect class="b" width="191" height="96"/></clipPath></defs><g transform="translate(-1368 -838)"><rect class="c" width="140" height="140" rx="10" transform="translate(1368 838)"/><g class="d" transform="translate(185 -1301)"><g class="e" transform="translate(1239.104 2119.338) rotate(45)"><g transform="translate(-1198 -2252)"><rect class="f" width="191" height="2" transform="translate(1198 2252)"/></g><g transform="translate(-1198 -2245)"><rect class="f" width="191" height="2" transform="translate(1198 2252)"/></g><g transform="translate(-1198 -2238)"><rect class="f" width="191" height="2" transform="translate(1198 2252)"/></g><g transform="translate(-1198 -2231)"><rect class="f" width="191" height="2" transform="translate(1198 2252)"/></g><g transform="translate(-1198 -2224)"><rect class="f" width="191" height="2" transform="translate(1198 2252)"/></g><g transform="translate(-1198 -2217)"><rect class="f" width="191" height="2" transform="translate(1198 2252)"/></g><g transform="translate(-1198 -2210)"><rect class="f" width="191" height="2" transform="translate(1198 2252)"/></g><g transform="translate(-1198 -2203)"><rect class="f" width="191" height="2" transform="translate(1198 2252)"/></g><g transform="translate(-1198 -2196)"><rect class="f" width="191" height="2" transform="translate(1198 2252)"/></g><g transform="translate(-1198 -2189)"><rect class="f" width="191" height="2" transform="translate(1198 2252)"/></g><g transform="translate(-1198 -2182)"><rect class="f" width="191" height="2" transform="translate(1198 2252)"/></g><g transform="translate(-1198 -2175)"><rect class="f" width="191" height="2" transform="translate(1198 2252)"/></g><g transform="translate(-1198 -2168)"><rect class="f" width="191" height="2" transform="translate(1198 2252)"/></g><g transform="translate(-1198 -2161)"><rect class="f" width="191" height="2" transform="translate(1198 2252)"/></g></g></g></g></svg>