<svg xmlns="http://www.w3.org/2000/svg" xmlns:xlink="http://www.w3.org/1999/xlink" width="691" height="193" viewBox="0 0 691 193"><defs><style>.a{fill:#fff;stroke:#707070;}.b{fill:url(#a);}.c{clip-path:url(#b);}.d,.f{fill:none;stroke:#c8c8c8;stroke-linecap:round;stroke-linejoin:round;stroke-width:1.3px;}.e{clip-path:url(#c);}.f{stroke-dasharray:6;}</style><linearGradient id="a" x1="0.87" y1="0.533" x2="0" y2="0.533" gradientUnits="objectBoundingBox"><stop offset="0" stop-color="#fff" stop-opacity="0"/><stop offset="0.653" stop-color="#fff"/><stop offset="1" stop-color="#fff"/></linearGradient><clipPath id="b"><rect class="a" width="251" height="193" transform="translate(440 778)"/></clipPath><clipPath id="c"><rect class="b" width="441" height="165" transform="translate(0 806)"/></clipPath></defs><g transform="translate(0 -778)"><g class="c"><path class="d" d="M0,840c21.333,140,209.333,80.667,342.667,28.667s325.333-89.667,300,44C635,957,598.233,967.97,587,953c-14.671-19.547,3.192-67.56,97-79"/></g><g class="e"><path class="f" d="M0,840c21.333,140,209.333,80.667,342.667,28.667s325.333-89.667,300,44C635,957,598.233,967.97,587,953c-14.671-19.547,3.192-67.56,97-79"/></g><rect class="b" width="346" height="165" transform="translate(0 806)"/><path class="d" d="M674.5,870.375a12.375,12.375,0,0,0,8.25,3.4,17.2,17.2,0,0,0-8.25,8.194" transform="translate(2)"/></g></svg>