<svg xmlns="http://www.w3.org/2000/svg" xmlns:xlink="http://www.w3.org/1999/xlink" width="360" height="163" viewBox="0 0 360 163"><defs><style>.a{fill:#fff;stroke:#707070;}.b{fill:url(#a);}.c{clip-path:url(#b);}.d{clip-path:url(#c);}.e,.g{fill:none;stroke:#c8c8c8;stroke-linecap:round;stroke-linejoin:round;stroke-width:1.3px;}.f{clip-path:url(#d);}.g{stroke-dasharray:6;}</style><linearGradient id="a" x1="0.87" y1="0.533" x2="0" y2="0.533" gradientUnits="objectBoundingBox"><stop offset="0" stop-color="#fff" stop-opacity="0"/><stop offset="0.653" stop-color="#fff"/><stop offset="1" stop-color="#fff"/></linearGradient><clipPath id="b"><rect class="a" width="360" height="163" transform="translate(251 820)"/></clipPath><clipPath id="c"><rect class="a" width="218" height="168" transform="translate(0.309 -0.137)"/></clipPath><clipPath id="d"><rect class="b" width="384" height="144" transform="translate(0 -0.491)"/></clipPath></defs><g transform="translate(-251 -820)"><g class="c"><g transform="translate(10 42.137)"><g class="d" transform="translate(382.692 778)"><path class="e" d="M0,837.528c18.555,121.766,182.069,70.16,298.036,24.933S581,784.473,558.962,900.73c-6.668,38.559-38.647,48.1-48.416,35.08-12.76-17,2.776-58.761,84.366-68.711" transform="translate(-382.692 -783.603)"/></g><g class="f" transform="translate(0 802.353)"><path class="g" d="M0,837.528c18.555,121.766,182.069,70.16,298.036,24.933S581,784.473,558.962,900.73c-6.668,38.559-38.647,48.1-48.416,35.08-12.76-17,2.776-58.761,84.366-68.711" transform="translate(0 -807.956)"/></g><rect class="b" width="174" height="144" transform="translate(221 796.862)"/><path class="e" d="M674.5,870.375a10.763,10.763,0,0,0,7.175,2.957,14.962,14.962,0,0,0-7.175,7.127" transform="translate(-86.111 -12.031)"/></g></g></g></svg>