<svg xmlns="http://www.w3.org/2000/svg" xmlns:xlink="http://www.w3.org/1999/xlink" width="60" height="60" viewBox="0 0 60 60"><defs><style>.a{fill:none;}.b{fill:url(#a);}.c{fill:url(#b);}.d{fill:url(#c);}</style><linearGradient id="a" x1="0.017" y1="0.523" x2="0.979" y2="0.468" gradientUnits="objectBoundingBox"><stop offset="0" stop-color="#ec3636"/><stop offset="1" stop-color="#f6521f"/></linearGradient><linearGradient id="b" x1="1" y1="0.571" x2="0.018" y2="0.587" gradientUnits="objectBoundingBox"><stop offset="0" stop-color="#33b9ff"/><stop offset="1" stop-color="#009ee2"/></linearGradient><linearGradient id="c" x1="0.017" y1="0.523" x2="0.979" y2="0.468" gradientUnits="objectBoundingBox"><stop offset="0" stop-color="#0062b7"/><stop offset="1" stop-color="#33b9ff"/></linearGradient></defs><g transform="translate(-5 6)"><rect class="a" width="60" height="60" transform="translate(5 -6)"/><g transform="translate(7 -44.129)"><g transform="translate(-0.129 0.482)"><path class="b" d="M.651,59.436l29.3-15.576a2.876,2.876,0,0,1,2.772.358l21.6,15.99c.8.589.844,1.383.108,1.774l-29.3,15.576a2.876,2.876,0,0,1-2.772-.358L.759,61.21c-.8-.589-.844-1.383-.108-1.774Z"/><path class="c" d="M2.651,73.436l29.3-15.576a2.876,2.876,0,0,1,2.772.358l21.6,15.99c.8.589.844,1.383.108,1.774l-29.3,15.576a2.876,2.876,0,0,1-2.772-.358L2.759,75.21C1.964,74.621,1.915,73.827,2.651,73.436Z"/></g><path class="d" d="M-2557.641-1526.8l-11.2-8.288,20.792-11.052a2.873,2.873,0,0,1,2.772.358l11.2,8.288-20.792,11.051a2.1,2.1,0,0,1-.977.214A3.117,3.117,0,0,1-2557.641-1526.8Z" transform="translate(2579.871 1604.482)"/></g></g></svg>