<svg xmlns="http://www.w3.org/2000/svg" xmlns:xlink="http://www.w3.org/1999/xlink" width="80" height="80" viewBox="0 0 80 80"><defs><style>.a{fill:#f5f5f5;}.b{fill:none;}.c{fill:url(#a);}.d{fill:url(#b);}.e{fill:url(#c);}</style><linearGradient id="a" x1="0.5" x2="0.5" y2="1" gradientUnits="objectBoundingBox"><stop offset="0" stop-color="#f6521f"/><stop offset="1" stop-color="#ec3636"/></linearGradient><linearGradient id="b" x1="0.243" y1="-0.756" x2="0.807" y2="0.997" gradientUnits="objectBoundingBox"><stop offset="0" stop-color="#33b9ff"/><stop offset="1" stop-color="#009ee2"/></linearGradient><linearGradient id="c" x1="0.5" x2="0.5" y2="1" gradientUnits="objectBoundingBox"><stop offset="0" stop-color="#33b9ff"/><stop offset="1" stop-color="#0062b7"/></linearGradient></defs><circle class="a" cx="40" cy="40" r="40"/><g transform="translate(16 27)"><rect class="b" width="38" height="38" transform="translate(5 -6)"/><g transform="translate(10.019 -0.258)"><path class="c" d="M9.5,19A9.5,9.5,0,0,1,5.8.747a9.5,9.5,0,0,1,7.4,17.507A9.441,9.441,0,0,1,9.5,19Zm0-11.75A2.25,2.25,0,1,0,11.75,9.5,2.253,2.253,0,0,0,9.5,7.25Z" transform="translate(-0.019 4.258)"/><path class="d" d="M0,0H23.821l4.564,4.564L23.821,9.128H0Z" transform="translate(10.472 0) rotate(45)"/><path class="e" d="M0,1.825a9.628,9.628,0,0,1,15.268,7.8,9.584,9.584,0,0,1-1.826,5.642Z" transform="translate(4.033 4.645)"/></g></g></svg>