<svg xmlns="http://www.w3.org/2000/svg" xmlns:xlink="http://www.w3.org/1999/xlink" width="112.362" height="152.767" viewBox="0 0 112.362 152.767"><defs><style>.a{fill:url(#a);}.b{fill:#231f20;}.c{fill:#9a9a9a;}.d{fill:#fff;}</style><linearGradient id="a" x1="0.5" x2="0.5" y2="1" gradientUnits="objectBoundingBox"><stop offset="0" stop-color="#f6521f"/><stop offset="1" stop-color="#ec3636"/></linearGradient></defs><g transform="translate(-13.709 0)"><path class="a" d="M47.189,138.876c.044.718-.061,1.859-1.144,2.053-1.574.282-1.974-2.454-3.945-11.254a202.771,202.771,0,0,1-3-20.928,14.23,14.23,0,0,1-3.741,5.449c-3.991,3.494-11.72,2.048-14.406,2.81s-3.55,6.124-5.944,4.3-1.935-5.362,2.46-9.279c2.685-2.394,5.749-2.231,8.648-2.068a13.485,13.485,0,0,0,5.195-.347c4.037-1.428,4.432-6.462,6.563-10.614a7.433,7.433,0,0,1,.408-.7c-.431-7.679-.436-15.17.388-20.651a215.136,215.136,0,0,1,4.8-23.709C39,52.737,33.012,47.76,28.225,42.242c-6.127-7.062-5.6-20.906-4.692-22.01,1.1-1.341,2.061.933,2.061.933a2,2,0,0,1,1.434-2.275c1.657-.52,2.1,1.294,2.112,1.324-.007-.03-.4-1.713,1.01-2.042,2.019-.471,1.932,7.064,3.812,10.847,1.682,3.383,7.73,7.066,15.219,7.484.1.006.194.021.3.029C52.928,28.688,56.3,23.8,58.846,19.262a38.094,38.094,0,0,1,6.266-8.536C67.284,7.382,72.086.121,72.908,0c.775-.111,1.308,3.378,1.543,5.315,5.4-1.289,11.562-.167,18.786,2.939,5.755,2.475,9.819,5.182,12.283,9.113,1.97-1.164,5.312-2.756,6.327-1.967,1.375,1.07-3.478,14.406-3.478,14.865l-.08-.258c-.382,4.055-2.127,9.755-4.242,16.151a56.638,56.638,0,0,1,10.534,4.981c8.02,4.805,11.826,18.127,11.306,19.459-.631,1.617-2.249-.246-2.249-.246a2,2,0,0,1-.655,2.608,1.674,1.674,0,0,1-2.419-.6c.025.04.909,1.5-.325,2.255-1.772,1.075-4.034-6.113-7-9.122-2.372-2.41-8.146-3.951-14.528-2.865C96.487,70.155,94.807,77.569,95,83.613a119.9,119.9,0,0,0,1.945,17.107c3.213.2,7.914,1.579,12.843,6.165,3.7,3.439,6.807,14.65,7.107,17.616.306,3.019.039,3.86-.993,4.127-.915.237-1.8-1.6-1.8-1.6a1.9,1.9,0,0,1-1.223,2.675c-1.477.429-2.292-2.293-2.292-2.293s.627,2.138-1.109,2.331c-1.031.114-2.1-2.561-2.1-2.561s-1.375-4.7-4.127-7.107c-10.171-8.9-27.05-4.1-29.577-3.668-12.61,2.178-15.158,5.743-17.93,11.117a19.639,19.639,0,0,0-2.292,10.327s.569,2.319-1.015,2.674-1.631-2.061-1.631-2.061-.065,2.618-1.387,2.792a1.968,1.968,0,0,1-.257.017C47.806,141.265,47.343,139.744,47.189,138.876Z" transform="translate(0.137 11.502)"/><g transform="translate(94.543 39.34)"><g transform="translate(0 0)"><path class="b" d="M1042.807,384.127a.593.593,0,0,1,.423.625c0,.075,0,.861,1.343,1.254a1.677,1.677,0,0,0,1.863-.42.6.6,0,0,1,.828-.109.589.589,0,0,1,.12.821,2.849,2.849,0,0,1-3.144.845c-2.335-.684-2.2-2.43-2.191-2.5a.593.593,0,0,1,.646-.535A.6.6,0,0,1,1042.807,384.127Z" transform="translate(-1042.045 -384.103)"/></g><g transform="translate(4.093 1.95)"><path class="b" d="M1040.733,393.639a.351.351,0,0,1,.188.135l1.02,1.45a.351.351,0,0,1-.573.4l-1.021-1.45a.351.351,0,0,1,.385-.538Z" transform="translate(-1040.284 -393.625)"/></g><g transform="translate(3.036 2.185)"><path class="b" d="M1049.965,394.787a.352.352,0,0,1,.251.3l.187,1.763a.351.351,0,0,1-.7.073l-.187-1.764a.351.351,0,0,1,.447-.373Z" transform="translate(-1049.516 -394.773)"/></g></g><g transform="translate(68.428 29.852)"><g transform="translate(1.445)"><path class="b" d="M1168.358,339.6a.594.594,0,0,0-.725.207c-.046.059-.554.659-1.835.1a1.676,1.676,0,0,1-1.158-1.518.6.6,0,0,0-.565-.616.59.59,0,0,0-.62.552,2.849,2.849,0,0,0,1.866,2.668c2.228.976,3.245-.45,3.287-.511a.593.593,0,0,0-.151-.824A.615.615,0,0,0,1168.358,339.6Z" transform="translate(-1163.454 -337.774)"/></g><g transform="translate(0 0.858)"><path class="b" d="M1186.606,341.99a.35.35,0,0,0-.231-.018l-1.714.456a.351.351,0,0,0,.18.678l1.714-.456a.351.351,0,0,0,.051-.66Z" transform="translate(-1184.401 -341.961)"/></g><g transform="translate(1.097 1.717)"><path class="b" d="M1182.95,346.187a.351.351,0,0,0-.384.069l-1.276,1.232a.351.351,0,0,0,.488.5l1.276-1.231a.351.351,0,0,0-.1-.573Z" transform="translate(-1181.182 -346.157)"/></g></g><g transform="translate(80.041 41.908)"><path d="M1122.534,402.31c.22.08.367.122.392.129a.395.395,0,0,0,.213-.76c-.022-.008-2.541-.735-2.993-2.3a4.218,4.218,0,0,1,.278-2.192.4.4,0,0,0-.217-.515.383.383,0,0,0-.515.216,4.937,4.937,0,0,0-.3,2.71C1119.841,401.167,1121.708,402.008,1122.534,402.31Z" transform="translate(-1119.291 -396.642)"/></g><g transform="translate(74.75 41.894)"><path d="M1134.559,399.052c-.214-.095-.349-.166-.372-.179a.395.395,0,0,1,.374-.7c.021.01,2.34,1.232,3.752.418a4.216,4.216,0,0,0,1.32-1.772.4.4,0,0,1,.513-.22.383.383,0,0,1,.221.513,4.933,4.933,0,0,1-1.66,2.164C1137.292,400.1,1135.363,399.408,1134.559,399.052Z" transform="translate(-1133.979 -396.576)"/></g><path class="b" d="M1121.735,382.252c.773-.4,1.8.792,1.857.854.074-.016,1.623-.334,1.994.455.9,1.925-2.656,2.322-2.933,2.35l0,.011-.01-.01h-.013l0-.01C1122.426,385.712,1119.846,383.228,1121.735,382.252Z" transform="translate(-1041.915 -343.226)"/><g transform="translate(55.68)"><path d="M51.6,51.7c-3.974-1.376-.611-10.7,1.224-16.355,1.364-4.208,3.392-5.917,5.549-5.855.675-4.87.941-17.972-13.956-24.714C27.76-2.761,17.775,5.954,14.39,9.833c1.384,1.528,1.484,4.117-.5,7.879C11.122,22.974,6.791,31.887,3.033,30s-4.052-4.377-.723-11.036S8.514,7.374,12.174,8.5q.1.031.2.066c2.594-3.536,11.614-12.9,30.971-6.234,19.975,6.874,18.488,23.212,17.58,28,2.959,2,1.45,7.375-.918,14.182-1.917,5.513-3.552,7.644-6.084,7.644A7.173,7.173,0,0,1,51.6,51.7Z"/><path class="c" d="M957.376,360.12c-1.992-1.074-4.043-.291-5.269,3.55s-3.475,10.174-.775,11.094,4.042-.123,5.677-4.9S959.663,361.352,957.376,360.12Z" transform="translate(-895.552 -325.341)"/><path class="c" d="M1220.1,239.6c1.632.681,2.111,2.676.254,6.178s-4.809,9.439-6.679,8.149-1.846-2.959.409-7.392S1218.23,238.821,1220.1,239.6Z" transform="translate(-1212.107 -229.764)"/></g><path class="d" d="M1134.312,484.176c6.119,3.182,10.088,11.617,9.783,22.316s-.109,26.427-12.84,28.125c-18.342,2.446-25.068-9.477-20.482-28.125,1.516-6.167,3.158-11.939,5.609-16.193C1119.57,484.763,1126.67,480.2,1134.312,484.176Z" transform="translate(-1057.904 -423.147)"/></g></svg>