<svg xmlns="http://www.w3.org/2000/svg" width="166.688" height="39.262" viewBox="0 0 166.688 39.262"><defs><style>.a{fill:#fff;}.b{fill:#009ee2;}</style></defs><g transform="translate(-459.652 -82.739)"><path class="a" d="M110.073,18.155l1-4.02h-3.859l-1,4.02H101.5l3.514-14.134h-3.731l1-4.021h14.472a1.9,1.9,0,0,1,1.922,2.481l-3.9,15.674Zm-1.859-8.041h3.859l1.515-6.092h-3.859ZM92.258,18.155l-2.538-6.3H87.672l-1.567,6.3H81.394L85.908,0H97.432a1.888,1.888,0,0,1,1.913,2.478L97.6,9.377a3.457,3.457,0,0,1-2.985,2.469l2.542,6.308ZM88.671,7.834h4.6l.97-3.813H89.62ZM67.955,18.155H63.244L67.759,0H79.606a1.9,1.9,0,0,1,1.922,2.481L80.506,6.6a3.748,3.748,0,0,1-2.911,2.455V9.1a2,2,0,0,1,1.678,2.456l-1.025,4.116a3.426,3.426,0,0,1-3.157,2.481Zm1-4.02h5.005l.758-3.047H69.713Zm1.757-7.068h4.98l.767-3.045H71.47ZM49.475,18.155a1.9,1.9,0,0,1-1.922-2.481L50.834,2.481A3.423,3.423,0,0,1,53.99,0h9.849l-1.01,4.021H55.161L54.4,7.066h6.924l-1.01,4.021H53.4l-.757,3.047h7.665l-1.01,4.02Zm-17.246,0c-1.4,0-2.316-.9-2.039-2.011l.376-1.513a2.176,2.176,0,0,1,.483-.858l9.678-9.751h-7.5l1-4.021h11.18c1.4,0,2.315.9,2.039,2.01-.15.6-.284,1.146-.376,1.514a2.2,2.2,0,0,1-.483.859l-9.678,9.751h7.5l-1,4.02Zm-10.315,0,1-4.02H19.055l-1,4.02h-4.71L16.86,4.021H13.129l1-4.021H28.6a1.9,1.9,0,0,1,1.923,2.481l-3.9,15.674Zm-1.859-8.041h3.859l1.515-6.092H21.57ZM2,18.155A1.9,1.9,0,0,1,.074,15.673L3.972,0H8.667L5.152,14.134h6.225l-1,4.02Z" transform="translate(507.585 92.912)"/><path class="b" d="M488.339,84.9c-10.378.706-20.848,5.557-26.577,8.65a19.741,19.741,0,0,1,26.577-8.65Zm6.334,5.121c-15.517,3.829-28.148,13.051-34.172,18.083.158.519.337,1.029.625,1.751a18.354,18.354,0,0,0,.879,1.854c5.8-4.512,22.675-16.974,32.118-16.974a1.637,1.637,0,0,1,1.639,1.622c0,3.341-12.194,8.177-22.571,18.611l.092.116c4.651-2.145,15.9-9.889,25.718-11.068.044-.536.073-1.075.073-1.623A19.529,19.529,0,0,0,494.673,90.018Zm-3.693-3.5C477.83,87.738,464.709,95.8,459.951,99a19.682,19.682,0,0,0-.3,3.392c0,.588.031,1.17.081,1.744,5.482-4.1,17.9-12.264,33.621-15.582A19.838,19.838,0,0,0,490.98,86.518Zm6.27,19.856c-6.916.96-21.918,11.2-25.407,11.2a1.664,1.664,0,0,1-1.595-1.671c0-4.331,18.8-16.394,22.453-18.841l-.083-.133c-10.988,3.153-22.437,12.252-28.633,17.746a19.7,19.7,0,0,0,12.1,7.089,71.58,71.58,0,0,1,21.225-15.247ZM480.535,122a19.707,19.707,0,0,0,17.582-13.562A60.96,60.96,0,0,0,480.535,122Z" transform="translate(0 0)"/></g></svg>