<svg xmlns="http://www.w3.org/2000/svg" xmlns:xlink="http://www.w3.org/1999/xlink" width="41" height="41" viewBox="0 0 41 41"><defs><style>.a{fill:url(#a);}.b{fill:#fff;}</style><linearGradient id="a" x1="1" x2="0" y2="1" gradientUnits="objectBoundingBox"><stop offset="0" stop-color="#cc39a3"/><stop offset="0.502" stop-color="#ff5e40"/><stop offset="1" stop-color="#ffdb55"/></linearGradient></defs><g transform="translate(2.07 2.038)"><rect class="a" width="41" height="41" rx="10" transform="translate(-2.07 -2.038)"/><path class="b" d="M16.633,3.143c-5.53,0-10.78-.492-12.786,4.652-.828,2.124-.708,4.883-.708,8.833,0,3.466-.111,6.724.708,8.832,2,5.146,7.295,4.653,12.783,4.653,5.3,0,10.755.551,12.785-4.653.83-2.146.708-4.863.708-8.832,0-5.268.291-8.669-2.266-11.222-2.589-2.587-6.09-2.263-11.23-2.263Zm-1.209,2.43c11.534-.018,13-1.3,12.192,16.5-.288,6.3-5.085,5.6-10.981,5.6-10.752,0-11.061-.307-11.061-11.055,0-10.872.853-11.043,9.85-11.052Zm8.412,2.238A1.618,1.618,0,1,0,25.455,9.43,1.618,1.618,0,0,0,23.837,7.812ZM16.633,9.7a6.924,6.924,0,1,0,6.928,6.925A6.927,6.927,0,0,0,16.633,9.7Zm0,2.43c5.947,0,5.954,8.99,0,8.99S10.679,12.134,16.633,12.134Z" transform="translate(1.797 1.831)"/></g></svg>