<svg xmlns="http://www.w3.org/2000/svg" width="235.741" height="43.911" viewBox="0 0 235.741 43.911"><defs><style>.a{fill:#0095e2;}</style></defs><g transform="translate(-459.652 -93.089)"><path d="M1.588,13a.563.563,0,0,1-.638-.637V7.45q0-.638.6-.637t.6.637V12H4.488V7.45q0-.638.6-.637t.6.637V12H8.025V7.45q0-.638.6-.637t.6.637v4.913A.563.563,0,0,1,8.588,13Zm10.175,0a.563.563,0,0,1-.638-.637V7.45a.563.563,0,0,1,.638-.637.558.558,0,0,1,.625.637V9.012h1.737a2.745,2.745,0,0,1,1.788.506,1.8,1.8,0,0,1,.613,1.469,1.831,1.831,0,0,1-.638,1.469A2.631,2.631,0,0,1,14.125,13Zm.625-.863h1.575a1.617,1.617,0,0,0,1.012-.281,1.031,1.031,0,0,0,.363-.869.981.981,0,0,0-.363-.844,1.671,1.671,0,0,0-1.012-.269H12.388Zm8.413.975a3.233,3.233,0,0,1-2.363-.844,3.078,3.078,0,0,1-.862-2.306,3.482,3.482,0,0,1,.381-1.656,2.791,2.791,0,0,1,1.056-1.119,2.982,2.982,0,0,1,1.55-.4,2.537,2.537,0,0,1,1.988.806,3.2,3.2,0,0,1,.725,2.219q0,.425-.5.425H18.8a1.81,1.81,0,0,0,2.012,1.9,3.555,3.555,0,0,0,.788-.094,2.489,2.489,0,0,0,.8-.344.647.647,0,0,1,.456-.106.4.4,0,0,1,.281.212.5.5,0,0,1,.031.375.626.626,0,0,1-.294.356,3.123,3.123,0,0,1-.994.431A4.416,4.416,0,0,1,20.8,13.113Zm-.187-5.438a1.641,1.641,0,0,0-1.25.488,2.224,2.224,0,0,0-.562,1.3h3.413a2.076,2.076,0,0,0-.45-1.319A1.452,1.452,0,0,0,20.613,7.675Zm4.725,5.412q-.562,0-.562-.6v-5q0-.675.575-.675a.606.606,0,0,1,.425.138,1.29,1.29,0,0,1,.25.313l2,3.5,1.987-3.5a1.325,1.325,0,0,1,.263-.319.605.605,0,0,1,.412-.131q.575,0,.575.675v5q0,.6-.562.6t-.55-.6V8.862l-1.687,2.925a.746.746,0,0,1-.163.2.4.4,0,0,1-.275.087.382.382,0,0,1-.281-.094,1.1,1.1,0,0,1-.156-.194l-1.7-2.925v3.625Q25.888,13.087,25.338,13.087Zm13.087.025a2.509,2.509,0,0,1-1.137-.25,2.066,2.066,0,0,1-.794-.675,1.653,1.653,0,0,1-.294-.962,1.545,1.545,0,0,1,.344-1.062A2.084,2.084,0,0,1,37.681,9.6a10.392,10.392,0,0,1,2.144-.175h.425V9.1a1.449,1.449,0,0,0-.3-1.025,1.324,1.324,0,0,0-.987-.312,3.678,3.678,0,0,0-.831.1,3.889,3.889,0,0,0-.894.338.479.479,0,0,1-.431.037.461.461,0,0,1-.231-.275.565.565,0,0,1,.013-.387.53.53,0,0,1,.313-.3,5.493,5.493,0,0,1,1.087-.369A4.7,4.7,0,0,1,39,6.787a2.537,2.537,0,0,1,1.85.594,2.517,2.517,0,0,1,.6,1.856V12.45q0,.638-.587.637t-.6-.637v-.462a1.783,1.783,0,0,1-.7.825A2.086,2.086,0,0,1,38.425,13.113Zm.25-.9a1.485,1.485,0,0,0,1.125-.475,1.675,1.675,0,0,0,.45-1.2V10.2h-.412a9.077,9.077,0,0,0-1.431.088,1.421,1.421,0,0,0-.737.294.744.744,0,0,0-.219.569.987.987,0,0,0,.325.769A1.294,1.294,0,0,0,38.675,12.212ZM43.963,13a.563.563,0,0,1-.638-.637V7.55a.569.569,0,0,1,.638-.65h2.475a2.61,2.61,0,0,1,1.644.419A1.432,1.432,0,0,1,48.6,8.5a1.342,1.342,0,0,1-.269.831,1.521,1.521,0,0,1-.731.519,1.564,1.564,0,0,1,.888.525,1.428,1.428,0,0,1,.313.925,1.49,1.49,0,0,1-.587,1.244A2.68,2.68,0,0,1,46.537,13Zm.55-3.513H46.35a1.2,1.2,0,0,0,.794-.237.806.806,0,0,0,.281-.65.784.784,0,0,0-.281-.65,1.241,1.241,0,0,0-.794-.225H44.513Zm0,2.7h1.95q1.175,0,1.175-.95T46.463,10.3h-1.95Zm7.8.9a.563.563,0,0,1-.638-.637V7.912h-1.7q-.55,0-.55-.513t.55-.5h4.662q.55,0,.55.5t-.55.513h-1.7V12.45A.558.558,0,0,1,52.313,13.087Zm6.425.025a3.16,3.16,0,0,1-1.6-.387,2.643,2.643,0,0,1-1.044-1.094,3.588,3.588,0,0,1-.369-1.681,3.588,3.588,0,0,1,.369-1.681,2.643,2.643,0,0,1,1.044-1.094,3.16,3.16,0,0,1,1.6-.387,3.108,3.108,0,0,1,1.575.387,2.684,2.684,0,0,1,1.05,1.094,3.539,3.539,0,0,1,.375,1.681,3.539,3.539,0,0,1-.375,1.681,2.684,2.684,0,0,1-1.05,1.094A3.108,3.108,0,0,1,58.737,13.113Zm0-.975a1.556,1.556,0,0,0,1.25-.562,2.455,2.455,0,0,0,.475-1.625,2.429,2.429,0,0,0-.475-1.619,1.7,1.7,0,0,0-2.513,0A2.429,2.429,0,0,0,57,9.95a2.455,2.455,0,0,0,.475,1.625A1.57,1.57,0,0,0,58.737,12.137Zm5.113.95q-.562,0-.562-.6v-5q0-.675.575-.675a.606.606,0,0,1,.425.138,1.29,1.29,0,0,1,.25.313l2,3.5,1.988-3.5a1.325,1.325,0,0,1,.262-.319.605.605,0,0,1,.413-.131q.575,0,.575.675v5q0,.6-.562.6t-.55-.6V8.862l-1.688,2.925a.746.746,0,0,1-.162.2.4.4,0,0,1-.275.087.382.382,0,0,1-.281-.094,1.1,1.1,0,0,1-.156-.194L64.4,8.862v3.625Q64.4,13.087,63.85,13.087Zm10.487.025a3.16,3.16,0,0,1-1.6-.387,2.643,2.643,0,0,1-1.044-1.094,3.588,3.588,0,0,1-.369-1.681,3.588,3.588,0,0,1,.369-1.681,2.643,2.643,0,0,1,1.044-1.094,3.16,3.16,0,0,1,1.6-.387,3.108,3.108,0,0,1,1.575.387,2.684,2.684,0,0,1,1.05,1.094,3.539,3.539,0,0,1,.375,1.681,3.539,3.539,0,0,1-.375,1.681,2.684,2.684,0,0,1-1.05,1.094A3.108,3.108,0,0,1,74.338,13.113Zm0-.975a1.556,1.556,0,0,0,1.25-.562,2.455,2.455,0,0,0,.475-1.625,2.429,2.429,0,0,0-.475-1.619,1.7,1.7,0,0,0-2.513,0A2.429,2.429,0,0,0,72.6,9.95a2.455,2.455,0,0,0,.475,1.625A1.57,1.57,0,0,0,74.338,12.137Zm7.25.975a2.886,2.886,0,0,1-2.231-.887,3.727,3.727,0,0,1-.819-2.613V8.688a4.329,4.329,0,0,1,.775-2.781A4.24,4.24,0,0,1,81.625,4.55l1.738-.462q.575-.15.7.375a.532.532,0,0,1-.081.438.725.725,0,0,1-.406.25l-1.862.475a2.572,2.572,0,0,0-1.475.913,2.64,2.64,0,0,0-.5,1.637v.05a2.246,2.246,0,0,1,.844-.95,2.448,2.448,0,0,1,1.331-.35,2.54,2.54,0,0,1,1.369.369,2.509,2.509,0,0,1,.931,1.056,3.65,3.65,0,0,1,.338,1.625,3.559,3.559,0,0,1-.369,1.669,2.614,2.614,0,0,1-1.037,1.087A3.088,3.088,0,0,1,81.588,13.113Zm-.05-.975a1.58,1.58,0,0,0,1.281-.544,2.38,2.38,0,0,0,.456-1.569,2.388,2.388,0,0,0-.463-1.569,1.738,1.738,0,0,0-2.537-.012,2.233,2.233,0,0,0-.463,1.494,2.543,2.543,0,0,0,.456,1.644A1.55,1.55,0,0,0,81.537,12.137Zm5.15.95q-.588,0-.588-.675V7.425q0-.612.575-.613t.575.613v3.9l3.063-4.1a1.283,1.283,0,0,1,.275-.287.722.722,0,0,1,.45-.125q.575,0,.575.675v4.988q0,.612-.562.612-.588,0-.588-.612V8.587l-3.062,4.1a1.432,1.432,0,0,1-.275.275A.7.7,0,0,1,86.688,13.087Zm11.6,0a.558.558,0,0,1-.625-.637V7.912H95.45V8.65a8,8,0,0,1-.412,2.888,2.658,2.658,0,0,1-1.375,1.475.618.618,0,0,1-.475.031.571.571,0,0,1-.312-.269.532.532,0,0,1-.044-.4.618.618,0,0,1,.306-.363,1.921,1.921,0,0,0,.906-1.169,8.283,8.283,0,0,0,.231-2.231v-1a.63.63,0,0,1,.713-.713h3.225a.63.63,0,0,1,.713.713V12.45A.563.563,0,0,1,98.287,13.087ZM101.463,13a.563.563,0,0,1-.638-.637V7.45a.631.631,0,1,1,1.263,0V9.012h1.737a2.745,2.745,0,0,1,1.788.506,1.8,1.8,0,0,1,.612,1.469,1.831,1.831,0,0,1-.637,1.469,2.631,2.631,0,0,1-1.763.544Zm.625-.863h1.575a1.617,1.617,0,0,0,1.013-.281,1.031,1.031,0,0,0,.362-.869.981.981,0,0,0-.362-.844,1.671,1.671,0,0,0-1.013-.269h-1.575Zm6.175.95a.563.563,0,0,1-.638-.637v-5a.631.631,0,1,1,1.263,0V9.363h3.037V7.45a.631.631,0,1,1,1.262,0v5a.631.631,0,1,1-1.262,0V10.363h-3.037V12.45A.558.558,0,0,1,108.263,13.087Zm7.45-.087a.563.563,0,0,1-.638-.637V7.45a.631.631,0,1,1,1.263,0V9.012h1.737a2.745,2.745,0,0,1,1.788.506,1.8,1.8,0,0,1,.612,1.469,1.831,1.831,0,0,1-.637,1.469,2.631,2.631,0,0,1-1.763.544Zm6.213.087a.558.558,0,0,1-.625-.637v-5a.631.631,0,1,1,1.262,0v5A.563.563,0,0,1,121.925,13.087Zm-5.588-.95h1.575a1.617,1.617,0,0,0,1.013-.281,1.031,1.031,0,0,0,.362-.869.981.981,0,0,0-.362-.844,1.671,1.671,0,0,0-1.013-.269h-1.575Zm11,.975a3.233,3.233,0,0,1-2.362-.844,3.078,3.078,0,0,1-.863-2.306,3.482,3.482,0,0,1,.381-1.656,2.791,2.791,0,0,1,1.056-1.119,2.982,2.982,0,0,1,1.55-.4,2.537,2.537,0,0,1,1.987.806,3.2,3.2,0,0,1,.725,2.219q0,.425-.5.425h-3.975a1.81,1.81,0,0,0,2.013,1.9,3.555,3.555,0,0,0,.787-.094,2.489,2.489,0,0,0,.8-.344.647.647,0,0,1,.456-.106.4.4,0,0,1,.281.212.5.5,0,0,1,.031.375.626.626,0,0,1-.294.356,3.123,3.123,0,0,1-.994.431A4.416,4.416,0,0,1,127.337,13.113Zm-.187-5.438a1.641,1.641,0,0,0-1.25.488,2.224,2.224,0,0,0-.562,1.3h3.413a2.077,2.077,0,0,0-.45-1.319A1.452,1.452,0,0,0,127.15,7.675Zm11.975,5.412q-.638,0-.637-.675V10.65a3.007,3.007,0,0,1-1.525.388A2.673,2.673,0,0,1,135,10.4a2.635,2.635,0,0,1-.637-1.937V7.45a.631.631,0,1,1,1.262,0v.912a1.814,1.814,0,0,0,.356,1.25,1.543,1.543,0,0,0,1.181.388,2.647,2.647,0,0,0,.712-.087,1.844,1.844,0,0,0,.6-.3V7.475q0-.662.637-.662t.625.662v4.938Q139.738,13.088,139.125,13.087Zm5.387.025a3.233,3.233,0,0,1-2.363-.844,3.078,3.078,0,0,1-.862-2.306,3.482,3.482,0,0,1,.381-1.656,2.791,2.791,0,0,1,1.056-1.119,2.982,2.982,0,0,1,1.55-.4,2.537,2.537,0,0,1,1.988.806,3.2,3.2,0,0,1,.725,2.219q0,.425-.5.425h-3.975a1.81,1.81,0,0,0,2.012,1.9,3.555,3.555,0,0,0,.788-.094,2.489,2.489,0,0,0,.8-.344.647.647,0,0,1,.456-.106.4.4,0,0,1,.281.212.5.5,0,0,1,.031.375.626.626,0,0,1-.294.356,3.123,3.123,0,0,1-.994.431A4.416,4.416,0,0,1,144.512,13.113Zm-.187-5.438a1.641,1.641,0,0,0-1.25.488,2.224,2.224,0,0,0-.562,1.3h3.413a2.077,2.077,0,0,0-.45-1.319A1.452,1.452,0,0,0,144.325,7.675Zm4.263,5.4a.5.5,0,0,1-.481-.275.56.56,0,0,1,.131-.625l1.875-2.325L148.375,7.7a.523.523,0,0,1-.137-.613.5.5,0,0,1,.475-.275.849.849,0,0,1,.394.081.877.877,0,0,1,.294.269l1.438,1.825,1.45-1.825a.9.9,0,0,1,.288-.269.81.81,0,0,1,.387-.081.5.5,0,0,1,.475.275.543.543,0,0,1-.137.625l-1.738,2.15,1.875,2.313a.547.547,0,0,1,.131.619.5.5,0,0,1-.481.281.841.841,0,0,1-.687-.35l-1.575-1.975-1.562,1.975a1.043,1.043,0,0,1-.288.262A.762.762,0,0,1,148.588,13.075Zm11.375.012a.558.558,0,0,1-.625-.637V7.912h-2.213V8.65a8,8,0,0,1-.412,2.888,2.658,2.658,0,0,1-1.375,1.475.618.618,0,0,1-.475.031.571.571,0,0,1-.312-.269.532.532,0,0,1-.044-.4.618.618,0,0,1,.306-.363,1.921,1.921,0,0,0,.906-1.169,8.283,8.283,0,0,0,.231-2.231v-1a.63.63,0,0,1,.713-.713h3.225a.63.63,0,0,1,.713.713V12.45A.563.563,0,0,1,159.963,13.087ZM163.137,13a.563.563,0,0,1-.637-.637V7.45a.631.631,0,1,1,1.262,0V9.012H165.5a2.745,2.745,0,0,1,1.788.506,1.8,1.8,0,0,1,.613,1.469,1.831,1.831,0,0,1-.638,1.469A2.631,2.631,0,0,1,165.5,13Zm6.213.087a.558.558,0,0,1-.625-.637v-5a.631.631,0,1,1,1.262,0v5A.563.563,0,0,1,169.35,13.087Zm-5.588-.95h1.575a1.617,1.617,0,0,0,1.012-.281,1.031,1.031,0,0,0,.363-.869.981.981,0,0,0-.363-.844,1.671,1.671,0,0,0-1.012-.269h-1.575Z" transform="translate(514.653 123)"/><path d="M684.172,122.913l1.523-6.162h-5.876l-1.523,6.162h-7.172l5.352-21.661h-5.682l1.521-6.163h22.038a2.9,2.9,0,0,1,2.927,3.8l-5.935,24.022Zm-2.831-12.324h5.876l2.307-9.337h-5.876Zm-24.3,12.324-3.865-9.655H650.06l-2.386,9.655H640.5l6.874-27.824h17.549a2.889,2.889,0,0,1,2.913,3.8L665.18,109.46a5.273,5.273,0,0,1-4.546,3.784l3.87,9.668Zm-5.462-15.818h7.008l1.477-5.843h-7.04Zm-31.546,15.818h-7.174l6.874-27.824h18.042a2.9,2.9,0,0,1,2.927,3.8l-1.558,6.31a5.717,5.717,0,0,1-4.432,3.762l0,.076a3.061,3.061,0,0,1,2.555,3.764l-1.56,6.308a5.224,5.224,0,0,1-4.808,3.8Zm1.522-6.162h7.622l1.155-4.67h-7.623Zm2.676-10.832h7.584l1.169-4.667h-7.6Zm-32.34,16.994a2.9,2.9,0,0,1-2.927-3.8l5-20.22a5.219,5.219,0,0,1,4.806-3.8h15l-1.538,6.163H600.552l-1.152,4.667h10.544l-1.538,6.163h-10.53l-1.152,4.67H608.4l-1.538,6.162Zm-26.263,0c-2.135,0-3.526-1.38-3.105-3.082.229-.925.434-1.754.573-2.319a3.339,3.339,0,0,1,.735-1.316l14.738-14.944H567.147l1.524-6.163H585.7c2.135,0,3.525,1.379,3.1,3.081-.228.926-.433,1.757-.572,2.32a3.376,3.376,0,0,1-.736,1.317l-14.737,14.944h11.422l-1.521,6.162Zm-15.707,0,1.522-6.162h-5.876l-1.522,6.162h-7.172l5.352-21.661h-5.682l1.522-6.163H560.1a2.9,2.9,0,0,1,2.928,3.8L557.1,122.913Zm-2.831-12.324h5.876l2.307-9.337H549.4Zm-27.5,12.324a2.9,2.9,0,0,1-2.928-3.8L522.6,95.089h7.149L524.4,116.751h9.48l-1.525,6.162Z" transform="translate(-2 -1)"/><path class="a" d="M491.737,85.152c-11.607.789-23.318,6.216-29.725,9.675a22.079,22.079,0,0,1,29.725-9.675Zm7.084,5.727c-17.355,4.282-31.481,14.6-38.219,20.224.177.58.377,1.151.7,1.958a20.521,20.521,0,0,0,.984,2.073c6.487-5.047,25.36-18.984,35.922-18.984a1.831,1.831,0,0,1,1.833,1.814c0,3.736-13.639,9.146-25.244,20.815l.1.13c5.2-2.4,17.783-11.061,28.763-12.379.049-.6.081-1.2.081-1.815A21.842,21.842,0,0,0,498.82,90.879Zm-4.13-3.914c-14.708,1.365-29.383,10.377-34.7,13.956a22.015,22.015,0,0,0-.334,3.794c0,.658.035,1.308.091,1.951,6.131-4.585,20.018-13.717,37.6-17.428A22.189,22.189,0,0,0,494.691,86.966Zm7.013,22.208c-7.735,1.074-24.514,12.527-28.417,12.527a1.861,1.861,0,0,1-1.784-1.868c0-4.844,21.025-18.336,25.112-21.073l-.093-.149c-12.29,3.526-25.095,13.7-32.024,19.847a22.039,22.039,0,0,0,13.536,7.928c3.145-3.427,10.793-10.733,23.739-17.052Zm-18.7,17.477a22.041,22.041,0,0,0,19.664-15.168A68.179,68.179,0,0,0,483.008,126.651Z" transform="translate(0 10.349)"/></g></svg>