<svg xmlns="http://www.w3.org/2000/svg" xmlns:xlink="http://www.w3.org/1999/xlink" width="21.001" height="16.738" viewBox="0 0 21.001 16.738"><defs><style>.a{fill:url(#a);}.b{fill:url(#b);}.c{fill:url(#c);}</style><linearGradient id="a" x1="0.5" x2="0.5" y2="1" gradientUnits="objectBoundingBox"><stop offset="0" stop-color="#f6521f"/><stop offset="1" stop-color="#ec3636"/></linearGradient><linearGradient id="b" x1="0.5" x2="0.5" y2="1" gradientUnits="objectBoundingBox"><stop offset="0" stop-color="#33b9ff"/><stop offset="1" stop-color="#009ee2"/></linearGradient><linearGradient id="c" x1="0.5" x2="0.5" y2="1" gradientUnits="objectBoundingBox"><stop offset="0" stop-color="#33b9ff"/><stop offset="1" stop-color="#0062b7"/></linearGradient></defs><g transform="translate(-52.151 -2)"><path class="a" d="M70.152,6.5c0,5.205-5.876,10.026-5.876,10.026a1.028,1.028,0,0,1-1.249,0S57.151,11.706,57.151,6.5a6.5,6.5,0,0,1,13,0Z" transform="translate(-5 2)"/><path class="b" d="M70.152,6.5c0,5.205-5.876,10.026-5.876,10.026a1.028,1.028,0,0,1-1.249,0S57.151,11.706,57.151,6.5a6.5,6.5,0,0,1,13,0Z" transform="translate(3 2)"/><path class="c" d="M-3081.848-38.073a6.489,6.489,0,0,1,2.5-5.125,6.489,6.489,0,0,1,2.5,5.125,11.3,11.3,0,0,1-2.5,6.392A11.3,11.3,0,0,1-3081.848-38.073Z" transform="translate(3141.999 46.573)"/></g></svg>