<svg xmlns="http://www.w3.org/2000/svg" width="44.09" height="43.911" viewBox="0 0 44.09 43.911"><defs><style>.a{fill:#0095e2;}</style></defs><path class="a" d="M491.737,85.152c-11.607.789-23.318,6.216-29.725,9.675a22.079,22.079,0,0,1,29.725-9.675Zm7.084,5.727c-17.355,4.282-31.481,14.6-38.219,20.224.177.58.377,1.151.7,1.958a20.521,20.521,0,0,0,.984,2.073c6.487-5.047,25.36-18.984,35.922-18.984a1.831,1.831,0,0,1,1.833,1.814c0,3.736-13.639,9.146-25.244,20.815l.1.13c5.2-2.4,17.783-11.061,28.763-12.379.049-.6.081-1.2.081-1.815A21.842,21.842,0,0,0,498.82,90.879Zm-4.13-3.914c-14.708,1.365-29.383,10.377-34.7,13.956a22.015,22.015,0,0,0-.334,3.794c0,.658.035,1.308.091,1.951,6.131-4.585,20.018-13.717,37.6-17.428A22.189,22.189,0,0,0,494.691,86.966Zm7.013,22.208c-7.735,1.074-24.514,12.527-28.417,12.527a1.861,1.861,0,0,1-1.784-1.868c0-4.844,21.025-18.336,25.112-21.073l-.093-.149c-12.29,3.526-25.095,13.7-32.024,19.847a22.039,22.039,0,0,0,13.536,7.928c3.145-3.427,10.793-10.733,23.739-17.052Zm-18.7,17.477a22.041,22.041,0,0,0,19.664-15.168A68.179,68.179,0,0,0,483.008,126.651Z" transform="translate(-459.652 -82.739)"/></svg>