<svg xmlns="http://www.w3.org/2000/svg" width="33" height="33" viewBox="0 0 33 33"><defs><style>.a{fill:#7541ab;}.b{fill:#fff;}</style></defs><g transform="translate(-893 -57)"><rect class="a" width="33" height="33" rx="16.5" transform="translate(893 57)"/><path class="b" d="M10.932,14.565h-.018a.233.233,0,0,1-.058-.008c-.034-.01-.082-.02-.136-.032a3.3,3.3,0,0,1-.589-.174,19.029,19.029,0,0,1-5.953-3.929A17.777,17.777,0,0,1,.254,4.482a2.715,2.715,0,0,1-.039-2.2A2.882,2.882,0,0,1,2.011.81a1.477,1.477,0,0,1,1,0,7.3,7.3,0,0,1,2.583,3.5,1.457,1.457,0,0,1-.805,1.278c-.519.351-.614.782-.319,1.44A6.048,6.048,0,0,0,7.638,10.1a1.249,1.249,0,0,0,.5.126.731.731,0,0,0,.626-.378,1.65,1.65,0,0,1,1.372-.864,2.247,2.247,0,0,1,1.272.48l.224.156c.362.25.735.509,1.087.79.066.054.137.108.205.159.518.394,1.162.883.809,1.872a3.374,3.374,0,0,1-2.8,2.122Zm2.74-7.18c-.566-.011-.575-.535-.578-.787a1.814,1.814,0,0,0-.01-.192c-.41-3.222-1.889-4.737-5.105-5.229-.045-.007-.1-.011-.158-.015-.24-.017-.74-.053-.71-.567A.579.579,0,0,1,7.75,0c.059,0,.119,0,.171.008S8,.013,8.038.013a.247.247,0,0,0,.039,0l.04,0a6.535,6.535,0,0,1,6.141,6.4c0,.044,0,.094,0,.148a.88.88,0,0,1-.154.674.56.56,0,0,1-.42.158Zm-2.5-1.069a1.478,1.478,0,0,0-.015-.167c-.322-1.93-.982-2.615-2.94-3.05-.048-.011-.106-.018-.167-.027a.861.861,0,0,1-.617-.264.572.572,0,0,1-.087-.452.557.557,0,0,1,.6-.5,2.053,2.053,0,0,1,.332.036c.051.008.1.016.141.021a4.415,4.415,0,0,1,3.922,4.2.173.173,0,0,1,0,.028,1.035,1.035,0,0,0,0,.153c.008.211.023.65-.461.723a.989.989,0,0,1-.138.011C11.219,7.027,11.19,6.547,11.176,6.316Zm-1.84-.1A1.27,1.27,0,0,0,8.153,4.946a.714.714,0,0,1-.54-.284.542.542,0,0,1-.023-.474A.678.678,0,0,1,8.3,3.78a2.121,2.121,0,0,1,1.492.7A2.248,2.248,0,0,1,10.5,6.009c.017.483-.16.748-.524.792-.023,0-.045,0-.068,0A.6.6,0,0,1,9.336,6.213Z" transform="translate(901.994 66.349)"/></g></svg>