<svg xmlns="http://www.w3.org/2000/svg" width="140" height="23.872" viewBox="0 0 140 23.872"><defs><style>.a{fill:#fff;}.b{fill:#0095e2;}</style></defs><g transform="translate(-459.652 -93.089)"><path class="a" d="M102.944,16.948l.935-3.753H100.27l-.935,3.753h-4.4L98.217,3.754h-3.49L95.662,0H109.2a1.771,1.771,0,0,1,1.8,2.316L107.35,16.948Zm-1.739-7.507h3.609l1.417-5.687h-3.609ZM86.283,16.948l-2.374-5.881H81.994l-1.465,5.881H76.123L80.345,0H91.122a1.763,1.763,0,0,1,1.789,2.314L91.28,8.754a3.232,3.232,0,0,1-2.792,2.3l2.377,5.889ZM82.928,7.313h4.3l.907-3.559H83.816ZM63.554,16.948H59.148L63.37,0H74.451a1.771,1.771,0,0,1,1.8,2.316l-.957,3.843a3.5,3.5,0,0,1-2.722,2.292V8.5a1.866,1.866,0,0,1,1.569,2.293l-.958,3.842a3.2,3.2,0,0,1-2.953,2.316Zm.935-3.753H69.17l.709-2.844H65.2Zm1.643-6.6h4.658l.718-2.843H66.841ZM46.271,16.948a1.771,1.771,0,0,1-1.8-2.316L47.542,2.316A3.2,3.2,0,0,1,50.493,0H59.7L58.76,3.754H51.588L50.881,6.6h6.476l-.944,3.754H49.945l-.708,2.844h7.169l-.944,3.753Zm-16.129,0c-1.311,0-2.166-.841-1.907-1.877l.352-1.413a2.029,2.029,0,0,1,.451-.8l9.051-9.1H31.073L32.009,0H42.465c1.311,0,2.165.84,1.907,1.877-.14.564-.266,1.07-.351,1.413a2.052,2.052,0,0,1-.452.8l-9.051,9.1h7.015L40.6,16.948Zm-9.646,0,.935-3.753H17.821l-.935,3.753h-4.4L15.768,3.754h-3.49L13.214,0H26.747a1.771,1.771,0,0,1,1.8,2.316L24.9,16.948ZM18.756,9.441h3.609l1.417-5.687H20.173ZM1.868,16.948a1.772,1.772,0,0,1-1.8-2.316L3.714,0H8.105L4.818,13.195h5.822L9.7,16.948Z" transform="translate(488.588 96.365)"/><path class="b" d="M477.095,84.051c-6.31.429-12.676,3.379-16.16,5.26a12,12,0,0,1,16.16-5.26Zm3.851,3.114c-9.435,2.328-17.115,7.935-20.778,10.995.1.315.2.625.38,1.065a11.165,11.165,0,0,0,.535,1.127c3.527-2.744,13.787-10.321,19.529-10.321a1,1,0,0,1,1,.986c0,2.031-7.415,4.972-13.724,11.316l.056.071c2.828-1.3,9.668-6.013,15.637-6.73.027-.326.044-.654.044-.987A11.874,11.874,0,0,0,480.946,87.165ZM478.7,85.037c-8,.742-15.974,5.641-18.867,7.587a11.973,11.973,0,0,0-.182,2.063c0,.358.019.711.049,1.061a54.279,54.279,0,0,1,20.442-9.474A12.067,12.067,0,0,0,478.7,85.037Zm3.813,12.073c-4.205.584-13.327,6.81-15.448,6.81a1.012,1.012,0,0,1-.97-1.016c0-2.633,11.43-9.968,13.652-11.456l-.051-.081c-6.681,1.917-13.642,7.45-17.409,10.79a11.981,11.981,0,0,0,7.359,4.31,43.523,43.523,0,0,1,12.906-9.27Zm-10.164,9.5a11.983,11.983,0,0,0,10.69-8.246A37.065,37.065,0,0,0,472.35,106.612Z" transform="translate(0 10.349)"/></g></svg>