<svg xmlns="http://www.w3.org/2000/svg" width="33" height="33" viewBox="0 0 33 33"><defs><style>.a{fill:#32912f;}.b{fill:#fff;}</style></defs><g transform="translate(-982 -57)"><rect class="a" width="33" height="33" rx="16.5" transform="translate(982 57)"/><path class="b" d="M140.892,136.982s-1.346-.659-2.189-1.1c-.954-.491-2.075.429-2.6.952a5.991,5.991,0,0,1-3.606-3.606c.523-.529,1.441-1.648.952-2.6-.434-.844-1.1-2.189-1.1-2.19a.549.549,0,0,0-.49-.3h-1.1a3.311,3.311,0,0,0-2.747,3.3c0,1.725,2.065,5.04,3.457,6.433s4.707,3.457,6.433,3.457a3.311,3.311,0,0,0,3.3-2.747v-1.1A.549.549,0,0,0,140.892,136.982Z" transform="translate(863.799 -61.146)"/></g></svg>