<svg xmlns="http://www.w3.org/2000/svg" xmlns:xlink="http://www.w3.org/1999/xlink" width="80" height="80" viewBox="0 0 80 80"><defs><style>.a{fill:#fff;}.b{fill:url(#a);}.c{fill:url(#b);}.d{stroke:rgba(0,0,0,0);stroke-miterlimit:10;fill:url(#c);}</style><linearGradient id="a" x1="0.5" x2="0.5" y2="1" gradientUnits="objectBoundingBox"><stop offset="0" stop-color="#f6521f"/><stop offset="1" stop-color="#ec3636"/></linearGradient><linearGradient id="b" x1="0.5" x2="0.5" y2="1" gradientUnits="objectBoundingBox"><stop offset="0" stop-color="#33b9ff"/><stop offset="1" stop-color="#009ee2"/></linearGradient><linearGradient id="c" x1="0.5" x2="0.5" y2="1" gradientUnits="objectBoundingBox"><stop offset="0" stop-color="#1faef3"/><stop offset="1" stop-color="#0070d1"/></linearGradient></defs><g transform="translate(-778 -640)"><rect class="a" width="80" height="80" transform="translate(778 640)"/><path class="b" d="M293.7,438.784a3.088,3.088,0,0,1-.872-.655L280.5,424.811a3.1,3.1,0,0,1,.156-4.375,4.033,4.033,0,0,1,4.633-.392l3.358,2.257V402.456a3.5,3.5,0,0,1,7,0V398.34a3.5,3.5,0,0,1,7,0v5a3.5,3.5,0,0,1,7,0v7a3.5,3.5,0,0,1,7,0v17.15q.012.3.013.6t-.013.6q0,.133-.014.263a14.022,14.022,0,0,1-22.932,9.834Z" transform="translate(508.328 265.006)"/><path class="c" d="M293.7,438.784a3.088,3.088,0,0,1-.872-.655L280.5,424.811a3.1,3.1,0,0,1,.156-4.375,4.033,4.033,0,0,1,4.633-.392l3.358,2.257V402.456a3.5,3.5,0,0,1,7,0V398.34a3.5,3.5,0,0,1,7,0v5a3.5,3.5,0,0,1,7,0v6a3.5,3.5,0,0,1,7,0v18.15q.012.3.013.6t-.013.6q0,.133-.014.263a14.022,14.022,0,0,1-22.932,9.834Z" transform="translate(529.328 257.006)"/><path class="d" d="M-19586.971,11222.789a3.053,3.053,0,0,1-.867-.655l-12.33-13.315a3.092,3.092,0,0,1,.156-4.378,3.378,3.378,0,0,1,.99-.635v0a4.177,4.177,0,0,1,3.639.245l3.359,2.256v-3.96a3.431,3.431,0,0,1,3.5-3.349,3.431,3.431,0,0,1,3.5,3.349v17.147c.006.2.01.4.01.6s0,.4-.01.6c0,.088,0,.177-.014.266a13.9,13.9,0,0,1-.488,2.884A13.954,13.954,0,0,1-19586.971,11222.789Z" transform="translate(20410 -10527)"/></g></svg>