<svg xmlns="http://www.w3.org/2000/svg" xmlns:xlink="http://www.w3.org/1999/xlink" width="80" height="80" viewBox="0 0 80 80"><defs><style>.a{fill:#fff;}.b{fill:url(#a);}.c{fill:url(#b);}.d{fill:url(#c);}</style><linearGradient id="a" x1="0.5" x2="0.5" y2="1" gradientUnits="objectBoundingBox"><stop offset="0" stop-color="#f6521f"/><stop offset="1" stop-color="#ec3636"/></linearGradient><linearGradient id="b" x1="0.5" x2="0.5" y2="1" gradientUnits="objectBoundingBox"><stop offset="0" stop-color="#33b9ff"/><stop offset="1" stop-color="#009ee2"/></linearGradient><linearGradient id="c" x1="0.5" x2="0.5" y2="1" gradientUnits="objectBoundingBox"><stop offset="0" stop-color="#33b9ff"/><stop offset="1" stop-color="#0070d1"/></linearGradient></defs><g transform="translate(-1208.477 -690.002)"><rect class="a" width="80" height="80" transform="translate(1208.477 690.002)"/><path class="b" d="M-19121.52,11230h-43v-37l21.668-14,21.336,14v37h0v0Zm-27-26h0v10h11v-10Z" transform="translate(20378 -10474)"/><path class="c" d="M-19121.52,11230h-16v-17h-11v17h-16v-37l21.668-14,21.336,14v37Z" transform="translate(20405.002 -10474)"/><path class="d" d="M-19137.521,11230v-37l8.063-5.21,7.939,5.21v37Z" transform="translate(20378 -10474.001)"/></g></svg>