<svg xmlns="http://www.w3.org/2000/svg" xmlns:xlink="http://www.w3.org/1999/xlink" width="80" height="80" viewBox="0 0 80 80"><defs><style>.a{fill:#fff;}.b{fill:url(#a);}.c{fill:url(#b);}.d{fill:url(#c);}</style><linearGradient id="a" x1="0.5" x2="0.5" y2="1" gradientUnits="objectBoundingBox"><stop offset="0" stop-color="#f6521f"/><stop offset="1" stop-color="#ec3636"/></linearGradient><linearGradient id="b" x1="0.5" x2="0.5" y2="1" gradientUnits="objectBoundingBox"><stop offset="0" stop-color="#33b9ff"/><stop offset="1" stop-color="#009ee2"/></linearGradient><linearGradient id="c" x1="0.5" x2="0.5" y2="1" gradientUnits="objectBoundingBox"><stop offset="0" stop-color="#33b9ff"/><stop offset="1" stop-color="#0070d1"/></linearGradient></defs><g transform="translate(-773 -636)"><rect class="a" width="80" height="80" transform="translate(773 636)"/><path class="b" d="M21,42A20.994,20.994,0,0,1,6.15,6.151a21,21,0,1,1,23.023,34.2A20.857,20.857,0,0,1,21,42Zm0-30.835A9.835,9.835,0,1,0,30.835,21,9.847,9.847,0,0,0,21,11.165Z" transform="translate(783 660)"/><path class="c" d="M37.186,42.807a39.369,39.369,0,0,1-15.428-3.115A39.492,39.492,0,0,1,9.161,31.2,39.476,39.476,0,0,1,.668,18.6c-.293-.693-.57-1.4-.822-2.109H7.069a22.369,22.369,0,0,0,20.87,14.162,22.46,22.46,0,0,0,20.7-31.18H76.652c.113,1.223.169,2.467.169,3.7A39.519,39.519,0,0,1,65.213,31.2a39.476,39.476,0,0,1-12.6,8.493A39.369,39.369,0,0,1,37.186,42.807Z" transform="translate(774.633 660.526)"/><path class="d" d="M-19343.859,11220.73a39.076,39.076,0,0,1-4.227-1.515,39.29,39.29,0,0,1-5.736-3q-.782-.645-1.508-1.369a20.79,20.79,0,0,1-4.5-6.679,20.791,20.791,0,0,1-1.652-8.172q0-.6.033-1.2a22.341,22.341,0,0,0,19.537,11.381,22.5,22.5,0,0,0,21.563-16.167,20.953,20.953,0,0,1,.863,5.987,20.857,20.857,0,0,1-1.648,8.172,20.775,20.775,0,0,1-4.5,6.679,20.824,20.824,0,0,1-6.674,4.5,20.788,20.788,0,0,1-8.172,1.652A21.129,21.129,0,0,1-19343.859,11220.73Z" transform="translate(20144.479 -10519)"/></g></svg>